<svg width="20" height="17" viewBox="0 0 20 17" fill="none" xmlns="http://www.w3.org/2000/svg">
<path d="M14.6193 0.75665H5.37138C1.82941 0.75665 0.839882 1.60746 0.75665 4.91823C2.5415 4.91823 3.98418 6.37015 3.98418 8.15501C3.98418 9.93986 2.5415 11.3825 0.75665 11.3918C0.839882 14.7026 1.82941 15.5534 5.37138 15.5534H14.6193C18.3185 15.5534 19.2433 14.6286 19.2433 10.9294V5.38062C19.2433 1.68145 18.3185 0.75665 14.6193 0.75665Z" stroke="#697077" stroke-width="1.5" stroke-linecap="round" stroke-linejoin="round"/>
<path d="M7.21921 0.75665V3.99343" stroke="#697077" stroke-width="1.5" stroke-linecap="round" stroke-linejoin="round"/>
<path d="M7.21921 12.3167V15.5535" stroke="#697077" stroke-width="1.5" stroke-linecap="round" stroke-linejoin="round"/>
<path d="M12.7976 5.68595L13.371 6.84194C13.4265 6.95292 13.5374 7.03615 13.6577 7.05465L14.9339 7.23961C15.2483 7.28585 15.3778 7.67426 15.1466 7.89621L14.2218 8.79326C14.1293 8.87649 14.0923 9.00596 14.1108 9.13544L14.3328 10.4024C14.3882 10.7168 14.0553 10.9573 13.7779 10.8093L12.6404 10.2082C12.5294 10.1527 12.3907 10.1527 12.2797 10.2082L11.1422 10.8093C10.8555 10.9573 10.5319 10.7168 10.5873 10.4024L10.8093 9.13544C10.8278 9.00596 10.7908 8.88574 10.6983 8.79326L9.78277 7.89621C9.55157 7.67426 9.68104 7.28585 9.99547 7.23961L11.2717 7.05465C11.4012 7.03615 11.5029 6.96217 11.5584 6.84194L12.1225 5.68595C12.252 5.39926 12.6589 5.39926 12.7976 5.68595Z" stroke="#697077" stroke-width="1.5" stroke-linecap="round" stroke-linejoin="round"/>
</svg>
