<svg width="22" height="22" viewBox="0 0 22 22" fill="none" xmlns="http://www.w3.org/2000/svg">
<path d="M11.0102 0.766728V7.92286L13.0548 5.87825" stroke="#8093A5" stroke-width="1.5" stroke-linecap="round" stroke-linejoin="round"/>
<path d="M11.0102 7.92286L8.96563 5.87825" stroke="#8093A5" stroke-width="1.5" stroke-linecap="round" stroke-linejoin="round"/>
<path d="M0.766728 12.0121H5.27509C5.66356 12.0121 6.01115 12.2268 6.18494 12.5743L7.38103 14.9665C7.72862 15.6617 8.43401 16.1013 9.21096 16.1013H12.8197C13.5966 16.1013 14.302 15.6617 14.6496 14.9665L15.8457 12.5743C16.0195 12.2268 16.3773 12.0121 16.7556 12.0121H21.2128" stroke="#8093A5" stroke-width="1.5" stroke-linecap="round" stroke-linejoin="round"/>
<path d="M5.89871 2.94412C2.27976 3.47571 0.787194 5.60211 0.787194 9.96734V14.0566C0.787194 19.1681 2.8318 21.2127 7.94332 21.2127H14.0771C19.1887 21.2127 21.2333 19.1681 21.2333 14.0566V9.96734C21.2333 5.60211 19.7407 3.47571 16.1218 2.94412" stroke="#8093A5" stroke-width="1.5" stroke-linecap="round" stroke-linejoin="round"/>
</svg>
