<svg width="17" height="43" viewBox="0 0 17 43" fill="none" xmlns="http://www.w3.org/2000/svg">
<path d="M12.7588 42.5759C15.6608 41.9489 17.5051 39.088 16.8781 36.1859C16.251 33.2838 13.3901 31.4395 10.488 32.0666C7.58594 32.6936 5.74165 35.5545 6.3687 38.4566C6.99575 41.3587 9.85668 43.203 12.7588 42.5759ZM3.55947 5.00967e-07L-8.34382e-05 11.0816L11.3767 8.62347L3.55947 5.00967e-07ZM12.2055 35.2423C12.0879 34.6982 11.5515 34.3524 11.0073 34.4699C10.4632 34.5875 10.1174 35.1239 10.2349 35.6681L12.2055 35.2423ZM9.42855 31.9359C9.54612 32.4801 10.0825 32.8259 10.6267 32.7083C11.1708 32.5907 11.5166 32.0543 11.3991 31.5102L9.42855 31.9359ZM10.5927 27.7781C10.4751 27.2339 9.93867 26.8881 9.39453 27.0057C8.85039 27.1233 8.50459 27.6597 8.62216 28.2038L10.5927 27.7781ZM7.81576 24.4717C7.93334 25.0158 8.46976 25.3616 9.0139 25.2441C9.55804 25.1265 9.90385 24.5901 9.78627 24.0459L7.81576 24.4717ZM8.97988 20.3138C8.86231 19.7697 8.32589 19.4239 7.78174 19.5414C7.2376 19.659 6.8918 20.1954 7.00937 20.7396L8.97988 20.3138ZM6.20298 17.0074C6.32055 17.5516 6.85697 17.8974 7.40112 17.7798C7.94526 17.6622 8.29106 17.1258 8.17349 16.5817L6.20298 17.0074ZM7.3671 12.8496C7.24952 12.3054 6.7131 11.9596 6.16896 12.0772C5.62482 12.1948 5.27902 12.7312 5.39659 13.2753L7.3671 12.8496ZM4.59019 9.54319C4.70777 10.0873 5.24419 10.4331 5.78833 10.3156C6.33247 10.198 6.67827 9.66157 6.5607 9.11743L4.59019 9.54319ZM5.75431 5.3853C5.63674 4.84116 5.10032 4.49536 4.55617 4.61293C4.01203 4.7305 3.66623 5.26693 3.7838 5.81107L5.75431 5.3853ZM2.97741 2.07894C3.09498 2.62308 3.6314 2.96889 4.17555 2.85132C4.71969 2.73375 5.06549 2.19732 4.94792 1.65318L2.97741 2.07894ZM12.6086 37.1084L12.2055 35.2423L10.2349 35.6681L10.6381 37.5341L12.6086 37.1084ZM11.3991 31.5102L10.5927 27.7781L8.62216 28.2038L9.42855 31.9359L11.3991 31.5102ZM9.78627 24.0459L8.97988 20.3138L7.00937 20.7396L7.81576 24.4717L9.78627 24.0459ZM8.17349 16.5817L7.3671 12.8496L5.39659 13.2753L6.20298 17.0074L8.17349 16.5817ZM6.5607 9.11743L5.75431 5.3853L3.7838 5.81107L4.59019 9.54319L6.5607 9.11743Z" fill="#82ADE3"/>
</svg>
