<svg width="6" height="20" viewBox="0 0 6 20" fill="none" xmlns="http://www.w3.org/2000/svg">
<path d="M4.87187 2.80248C4.86198 1.67429 3.93082 0.759312 2.80263 0.769201C1.67444 0.77909 0.759469 1.71025 0.769359 2.83844C0.779248 3.96663 1.7104 4.8816 2.83859 4.87171C3.96678 4.86182 4.88176 3.93067 4.87187 2.80248Z" stroke="#697077" stroke-width="1.5"/>
<path d="M4.99757 17.1613C4.98768 16.0331 4.05653 15.1181 2.92834 15.128C1.80015 15.1379 0.885174 16.0691 0.895063 17.1973C0.904952 18.3255 1.83611 19.2404 2.9643 19.2305C4.09249 19.2207 5.00746 18.2895 4.99757 17.1613Z" stroke="#697077" stroke-width="1.5"/>
<path d="M4.93447 9.98214C4.92458 8.85395 3.99342 7.93898 2.86523 7.94887C1.73704 7.95876 0.822071 8.88991 0.83196 10.0181C0.841849 11.1463 1.77301 12.0613 2.9012 12.0514C4.02939 12.0415 4.94436 11.1103 4.93447 9.98214Z" stroke="#697077" stroke-width="1.5"/>
</svg>
