<svg width="22" height="22" viewBox="0 0 22 22" fill="none" xmlns="http://www.w3.org/2000/svg">
<path d="M2.14869 0.767442H11.2557C12.0129 0.767442 12.6371 1.39163 12.6371 2.14884V3.66324C12.6371 4.2158 12.2892 4.9014 11.9515 5.24931L8.98409 7.86884C8.57479 8.21675 8.29846 8.90232 8.29846 9.45487V12.4223C8.29846 12.8316 8.0222 13.3842 7.67429 13.5991L6.71243 14.2232C5.81196 14.7758 4.5738 14.1516 4.5738 13.0465V9.39348C4.5738 8.91255 4.29754 8.28838 4.02126 7.94048L1.40173 5.17767C1.05382 4.82976 0.777559 4.21581 0.777559 3.79627V2.21024C0.767326 1.39163 1.39148 0.767442 2.14869 0.767442Z" stroke="#697077" stroke-width="1.5" stroke-miterlimit="10" stroke-linecap="round" stroke-linejoin="round"/>
<path d="M0.767442 11.0002V14.07C0.767442 19.1863 2.81395 21.2328 7.93023 21.2328H14.0698C19.186 21.2328 21.2326 19.1863 21.2326 14.07V7.93048C21.2326 4.73792 20.4344 2.73234 18.5823 1.68862C18.0604 1.39187 17.0168 1.16675 16.0651 1.01326" stroke="#697077" stroke-width="1.5" stroke-linecap="round" stroke-linejoin="round"/>
<path d="M12.0233 12.0233H17.1395" stroke="#697077" stroke-width="1.5" stroke-linecap="round" stroke-linejoin="round"/>
<path d="M9.97674 16.1163H17.1395" stroke="#697077" stroke-width="1.5" stroke-linecap="round" stroke-linejoin="round"/>
</svg>
