<svg width="6" height="20" viewBox="0 0 6 20" fill="none" xmlns="http://www.w3.org/2000/svg">
<path d="M4.87194 2.78937C4.85492 1.66124 3.91797 0.752148 2.78984 0.769173C1.6617 0.786198 0.752615 1.72315 0.76964 2.85128C0.786665 3.97941 1.72361 4.8885 2.85175 4.87148C3.97988 4.85445 4.88897 3.9175 4.87194 2.78937Z" stroke="#292D32" stroke-opacity="0.3" stroke-width="1.5"/>
<path d="M5.0888 17.1481C5.07178 16.0199 4.13483 15.1108 3.00669 15.1279C1.87856 15.1449 0.969473 16.0818 0.986498 17.21C1.00352 18.3381 1.94047 19.2472 3.0686 19.2302C4.19674 19.2131 5.10583 18.2762 5.0888 17.1481Z" stroke="#292D32" stroke-opacity="0.3" stroke-width="1.5"/>
<path d="M4.98012 9.96821C4.9631 8.84008 4.02615 7.93099 2.89801 7.94802C1.76988 7.96504 0.860793 8.90199 0.877819 10.0301C0.894844 11.1583 1.83179 12.0673 2.95992 12.0503C4.08806 12.0333 4.99715 11.0963 4.98012 9.96821Z" stroke="#292D32" stroke-opacity="0.3" stroke-width="1.5"/>
</svg>
