<svg width="20" height="20" viewBox="0 0 20 20" fill="none" xmlns="http://www.w3.org/2000/svg">
<path d="M15.5427 5.52546C15.4872 5.51622 15.4225 5.51622 15.3671 5.52546C14.0916 5.47925 13.0749 4.43482 13.0749 3.14084C13.0749 1.81914 14.1378 0.756222 15.4595 0.756222C16.7812 0.756222 17.8441 1.82838 17.8441 3.14084C17.8349 4.43482 16.8182 5.47925 15.5427 5.52546Z" stroke="#697077" stroke-width="1.5" stroke-linecap="round" stroke-linejoin="round"/>
<path d="M14.5909 12.2543C15.8572 12.4669 17.2528 12.2451 18.2325 11.5888C19.5358 10.72 19.5358 9.29664 18.2325 8.42782C17.2436 7.77159 15.8294 7.54976 14.5632 7.77158" stroke="#697077" stroke-width="1.5" stroke-linecap="round" stroke-linejoin="round"/>
<path d="M4.42339 5.52546C4.47884 5.51622 4.54354 5.51622 4.599 5.52546C5.87449 5.47925 6.89119 4.43482 6.89119 3.14084C6.89119 1.81914 5.82828 0.756222 4.50657 0.756222C3.18486 0.756222 2.12195 1.82838 2.12195 3.14084C2.13119 4.43482 3.14789 5.47925 4.42339 5.52546Z" stroke="#697077" stroke-width="1.5" stroke-linecap="round" stroke-linejoin="round"/>
<path d="M5.37527 12.2543C4.10901 12.4669 2.71337 12.2451 1.73364 11.5888C0.430416 10.72 0.430416 9.29664 1.73364 8.42782C2.72261 7.77159 4.13674 7.54976 5.40299 7.77158" stroke="#697077" stroke-width="1.5" stroke-linecap="round" stroke-linejoin="round"/>
<path d="M9.99703 12.4294C9.94158 12.4202 9.87688 12.4202 9.82142 12.4294C8.54593 12.3832 7.52923 11.3388 7.52923 10.0448C7.52923 8.72311 8.59214 7.66019 9.91385 7.66019C11.2356 7.66019 12.2985 8.73235 12.2985 10.0448C12.2892 11.3388 11.2725 12.3925 9.99703 12.4294Z" stroke="#697077" stroke-width="1.5" stroke-linecap="round" stroke-linejoin="round"/>
<path d="M7.30733 15.3408C6.00411 16.2096 6.00411 17.633 7.30733 18.5018C8.78616 19.4908 11.2078 19.4908 12.6866 18.5018C13.9898 17.633 13.9898 16.2096 12.6866 15.3408C11.217 14.3611 8.78616 14.3611 7.30733 15.3408Z" stroke="#697077" stroke-width="1.5" stroke-linecap="round" stroke-linejoin="round"/>
</svg>
