<svg width="43" height="25" viewBox="0 0 43 25" fill="none" xmlns="http://www.w3.org/2000/svg">
<path d="M42.4525 21.4823C43.7613 18.792 42.6414 15.55 39.951 14.2412C37.2607 12.9324 34.0188 14.0524 32.71 16.7427C31.4012 19.433 32.5211 22.6749 35.2114 23.9837C37.9018 25.2926 41.1437 24.1726 42.4525 21.4823ZM-5.95893e-07 0.829727L6.56823 10.5464L11.699 -0.000187478L-5.95893e-07 0.829727ZM36.1465 17.285C35.6421 17.0396 35.0342 17.2496 34.7888 17.754C34.5434 18.2584 34.7534 18.8663 35.2578 19.1117L36.1465 17.285ZM31.4997 17.2834C32.0041 17.5288 32.612 17.3188 32.8574 16.8144C33.1028 16.31 32.8928 15.7021 32.3884 15.4567L31.4997 17.2834ZM28.6303 13.6284C28.1258 13.383 27.518 13.593 27.2726 14.0975C27.0272 14.6019 27.2372 15.2098 27.7416 15.4552L28.6303 13.6284ZM23.9835 13.6269C24.4879 13.8723 25.0958 13.6623 25.3412 13.1579C25.5866 12.6534 25.3766 12.0456 24.8721 11.8002L23.9835 13.6269ZM21.114 9.97189C20.6096 9.72648 20.0017 9.93647 19.7563 10.4409C19.5109 10.9453 19.7209 11.5532 20.2253 11.7986L21.114 9.97189ZM16.4672 9.97033C16.9717 10.2157 17.5795 10.0057 17.8249 9.50131C18.0703 8.99687 17.8603 8.38901 17.3559 8.14361L16.4672 9.97033ZM13.5978 6.31533C13.0933 6.06993 12.4855 6.27992 12.2401 6.78436C11.9947 7.28879 12.2047 7.89665 12.7091 8.14205L13.5978 6.31533ZM8.95097 6.31378C9.4554 6.55918 10.0633 6.34919 10.3087 5.84475C10.5541 5.34032 10.3441 4.73246 9.83964 4.48706L8.95097 6.31378ZM6.08152 2.65878C5.57708 2.41338 4.96922 2.62337 4.72382 3.1278C4.47842 3.63224 4.68841 4.2401 5.19284 4.4855L6.08152 2.65878ZM1.43472 2.65723C1.93916 2.90263 2.54702 2.69264 2.79242 2.1882C3.03782 1.68377 2.82783 1.0759 2.3234 0.830503L1.43472 2.65723ZM38.0256 18.1991L36.1465 17.285L35.2578 19.1117L37.1369 20.0258L38.0256 18.1991ZM32.3884 15.4567L28.6303 13.6284L27.7416 15.4552L31.4997 17.2834L32.3884 15.4567ZM24.8721 11.8002L21.114 9.97189L20.2253 11.7986L23.9835 13.6269L24.8721 11.8002ZM17.3559 8.14361L13.5978 6.31533L12.7091 8.14205L16.4672 9.97033L17.3559 8.14361ZM9.83964 4.48706L6.08152 2.65878L5.19284 4.4855L8.95097 6.31378L9.83964 4.48706Z" fill="#82ADE3"/>
</svg>
