<svg width="14" height="20" viewBox="0 0 14 20" fill="none" xmlns="http://www.w3.org/2000/svg">
<path d="M13.106 15.7681L10.4761 18.398" stroke="#697077" stroke-width="1.5" stroke-linecap="round" stroke-linejoin="round"/>
<path d="M13.106 18.398L10.4761 15.7681" stroke="#697077" stroke-width="1.5" stroke-linecap="round" stroke-linejoin="round"/>
<path d="M7.27738 9.03502C7.18412 9.02569 7.07221 9.02569 6.96963 9.03502C4.75009 8.96041 2.98751 7.14188 2.98751 4.90368C2.98751 2.61886 4.83402 0.763021 7.12817 0.763021C9.41299 0.763021 11.2688 2.61886 11.2688 4.90368C11.2595 7.14188 9.49693 8.96041 7.27738 9.03502Z" stroke="#697077" stroke-width="1.5" stroke-linecap="round" stroke-linejoin="round"/>
<path d="M7.12789 19.2372C5.43059 19.2372 3.74262 18.8082 2.45566 17.9502C0.198809 16.4394 0.198809 13.9774 2.45566 12.476C5.02026 10.76 9.2262 10.76 11.7908 12.476" stroke="#697077" stroke-width="1.5" stroke-linecap="round" stroke-linejoin="round"/>
</svg>
