<svg width="23" height="23" viewBox="0 0 23 23" fill="none" xmlns="http://www.w3.org/2000/svg">
<path opacity="0.4" fill-rule="evenodd" clip-rule="evenodd" d="M15.197 7.24164C15.2145 7.36939 15.2309 7.48972 15.2397 7.64897L6.02795 16.8596H5.8149C4.4656 16.8596 3.48152 15.9061 3.29891 14.4251C3.09601 12.9441 3.13659 10.4081 3.29891 9.05897C3.49167 7.65911 4.52647 6.69544 5.8149 6.69544H7.57001L10.9179 3.95557C11.3237 3.61169 12.044 3.28708 12.602 3.27592C13.6165 3.27592 14.5498 3.98701 14.8846 5.12313C15.0165 5.59888 15.0672 6.07666 15.1078 6.53212L15.189 7.18235C15.1917 7.20239 15.1944 7.2221 15.197 7.24164ZM14.2606 13.1594C14.3986 13.0245 14.7039 12.9291 14.8419 12.9636C15.2152 13.059 15.2873 13.5935 15.2822 14.0135C15.2649 15.2328 15.2234 16.0808 15.1584 16.6053L15.1128 17.0374L15.112 17.0455C15.0686 17.4802 15.0237 17.93 14.8957 18.4099C14.5568 19.544 13.6509 20.2804 12.6221 20.2804C12.5877 20.2804 12.5542 20.2804 12.5197 20.2794C11.9516 20.2794 11.3337 19.9386 10.9837 19.6413L9.73687 18.6767C9.26411 18.3247 9.4031 17.7617 9.6689 17.4361C9.86732 17.1937 12.2514 15.0057 13.5048 13.8554C13.9304 13.4648 14.2256 13.1938 14.2606 13.1594Z" fill="#54A5DA"/>
<path d="M20.822 3.13361C20.4639 2.7877 19.914 2.78973 19.5691 3.13462L3.13402 19.5678C2.78807 19.9137 2.78807 20.4645 3.13706 20.8266C3.31562 20.992 3.53678 21.0833 3.76099 21.0833C3.99027 21.0833 4.22564 20.9869 4.38897 20.8236L20.8231 4.39044C21.17 4.04352 21.17 3.48154 20.822 3.13361Z" fill="#54A5DA"/>
</svg>
