<svg width="21" height="22" viewBox="0 0 21 22" fill="none" xmlns="http://www.w3.org/2000/svg">
<path d="M9.55717 11C12.3828 11 14.6735 8.70936 14.6735 5.88372C14.6735 3.05808 12.3828 0.767442 9.55717 0.767442C6.73153 0.767442 4.4409 3.05808 4.4409 5.88372C4.4409 8.70936 6.73153 11 9.55717 11Z" stroke="#838A91" stroke-width="1.5" stroke-linecap="round" stroke-linejoin="round"/>
<path d="M0.767442 21.2326C0.767442 17.2726 4.70697 14.0698 9.55721 14.0698C10.5395 14.0698 11.4912 14.2028 12.3814 14.4484" stroke="#838A91" stroke-width="1.5" stroke-linecap="round" stroke-linejoin="round"/>
<path d="M19.7897 17.1395C19.7897 17.907 19.5749 18.6335 19.1963 19.2474C18.9814 19.6158 18.7051 19.9433 18.3879 20.2093C17.6716 20.854 16.7302 21.2326 15.6967 21.2326C14.2028 21.2326 12.9032 20.4344 12.1972 19.2474C11.8186 18.6335 11.6037 17.907 11.6037 17.1395C11.6037 15.8502 12.1972 14.694 13.1386 13.947C13.8446 13.3842 14.7348 13.0465 15.6967 13.0465C17.9581 13.0465 19.7897 14.8781 19.7897 17.1395Z" stroke="#838A91" stroke-width="1.5" stroke-miterlimit="10" stroke-linecap="round" stroke-linejoin="round"/>
<path d="M14.1004 17.1395L15.1134 18.1525L17.2929 16.1368" stroke="#838A91" stroke-width="1.5" stroke-linecap="round" stroke-linejoin="round"/>
</svg>
